<mxfile host="app.diagrams.net" modified="2022-10-10T14:25:10.606Z" agent="5.0 (Macintosh; Intel Mac OS X 10_15_7) AppleWebKit/537.36 (KHTML, like Gecko) Chrome/104.0.5112.102 Safari/537.36 OPR/90.0.4480.84" etag="4iJAgjp9dyEYUsv4yoLC" version="20.3.3" type="github">
  <diagram id="nZODWil1GGmymQJ2X7so" name="Page-1">
    <mxGraphModel dx="1116" dy="819" grid="1" gridSize="10" guides="1" tooltips="1" connect="1" arrows="1" fold="1" page="1" pageScale="1" pageWidth="827" pageHeight="1169" math="0" shadow="0">
      <root>
        <mxCell id="0" />
        <mxCell id="1" parent="0" />
        <mxCell id="2crDgvULmikyN_rwQk-E-1" value="&lt;p style=&quot;line-height: 1.6;&quot;&gt;Analyse der wichtigsten Eigenschaften von Algorithmen&lt;/p&gt;" style="text;html=1;strokeColor=none;fillColor=none;align=center;verticalAlign=middle;whiteSpace=wrap;rounded=0;fontFamily=Comic Sans MS;fontSize=19;spacing=2;" vertex="1" parent="1">
          <mxGeometry x="50" y="224" width="150" height="110" as="geometry" />
        </mxCell>
        <mxCell id="2crDgvULmikyN_rwQk-E-2" value="" style="shape=curlyBracket;whiteSpace=wrap;html=1;rounded=1;fontFamily=Comic Sans MS;fontSize=19;fillColor=#dae8fc;strokeColor=#6c8ebf;strokeWidth=2;" vertex="1" parent="1">
          <mxGeometry x="220" y="130" width="60" height="300" as="geometry" />
        </mxCell>
        <mxCell id="2crDgvULmikyN_rwQk-E-3" value="&lt;p style=&quot;line-height: 1.6;&quot;&gt;Korrektheit&lt;/p&gt;" style="text;html=1;strokeColor=none;fillColor=none;align=left;verticalAlign=middle;whiteSpace=wrap;rounded=0;fontFamily=Comic Sans MS;fontSize=19;spacing=2;fontColor=#0066CC;" vertex="1" parent="1">
          <mxGeometry x="290" y="138" width="150" height="50" as="geometry" />
        </mxCell>
        <mxCell id="2crDgvULmikyN_rwQk-E-4" value="&lt;p style=&quot;line-height: 1.6;&quot;&gt;Terminierbarkeit&lt;/p&gt;" style="text;html=1;strokeColor=none;fillColor=none;align=left;verticalAlign=middle;whiteSpace=wrap;rounded=0;fontFamily=Comic Sans MS;fontSize=19;spacing=2;fontColor=#0066CC;" vertex="1" parent="1">
          <mxGeometry x="290" y="253" width="150" height="50" as="geometry" />
        </mxCell>
        <mxCell id="2crDgvULmikyN_rwQk-E-5" value="&lt;p style=&quot;line-height: 1.6;&quot;&gt;KomplexitÃ¤t&lt;/p&gt;" style="text;html=1;strokeColor=none;fillColor=none;align=left;verticalAlign=middle;whiteSpace=wrap;rounded=0;fontFamily=Comic Sans MS;fontSize=19;spacing=2;fontColor=#0066CC;" vertex="1" parent="1">
          <mxGeometry x="290" y="378" width="150" height="50" as="geometry" />
        </mxCell>
        <mxCell id="2crDgvULmikyN_rwQk-E-6" value="" style="shape=curlyBracket;whiteSpace=wrap;html=1;rounded=1;fontFamily=Comic Sans MS;fontSize=19;fillColor=#e1d5e7;strokeColor=#9673a6;strokeWidth=2;" vertex="1" parent="1">
          <mxGeometry x="440" y="314.5" width="60" height="177" as="geometry" />
        </mxCell>
        <mxCell id="2crDgvULmikyN_rwQk-E-7" value="&lt;p style=&quot;line-height: 1.6;&quot;&gt;Rechenzeit&lt;/p&gt;" style="text;html=1;strokeColor=none;fillColor=none;align=left;verticalAlign=middle;whiteSpace=wrap;rounded=0;fontFamily=Comic Sans MS;fontSize=19;spacing=2;fontColor=#660066;" vertex="1" parent="1">
          <mxGeometry x="510" y="306.5" width="150" height="50" as="geometry" />
        </mxCell>
        <mxCell id="2crDgvULmikyN_rwQk-E-8" value="&lt;p style=&quot;line-height: 1.6;&quot;&gt;Speicherplatz&lt;/p&gt;" style="text;html=1;strokeColor=none;fillColor=none;align=left;verticalAlign=middle;whiteSpace=wrap;rounded=0;fontFamily=Comic Sans MS;fontSize=19;spacing=2;fontColor=#660066;" vertex="1" parent="1">
          <mxGeometry x="510" y="367" width="150" height="50" as="geometry" />
        </mxCell>
        <mxCell id="2crDgvULmikyN_rwQk-E-9" value="&lt;p style=&quot;line-height: 1.6;&quot;&gt;Bandbreite oder Datentransfer&lt;/p&gt;" style="text;html=1;strokeColor=none;fillColor=none;align=left;verticalAlign=middle;whiteSpace=wrap;rounded=0;fontFamily=Comic Sans MS;fontSize=19;spacing=2;fontColor=#660066;" vertex="1" parent="1">
          <mxGeometry x="510" y="433.5" width="150" height="50" as="geometry" />
        </mxCell>
      </root>
    </mxGraphModel>
  </diagram>
</mxfile>
